<mxfile host="app.diagrams.net" modified="2021-09-27T08:22:03.289Z" agent="5.0 (Windows NT 10.0; Win64; x64) AppleWebKit/537.36 (KHTML, like Gecko) Chrome/92.0.4515.131 Safari/537.36" etag="YeH9kFxO4SiIMCzTEHHn" version="15.3.4" type="github">
  <diagram id="SlZWVKRbmToAKMfImu1V" name="Page-1">
    <mxGraphModel dx="868" dy="492" grid="1" gridSize="10" guides="1" tooltips="1" connect="1" arrows="1" fold="1" page="1" pageScale="1" pageWidth="850" pageHeight="1100" math="0" shadow="0">
      <root>
        <mxCell id="0" />
        <mxCell id="1" parent="0" />
        <mxCell id="bWsPGVuLKNREaqhDsOea-10" value="" style="edgeStyle=none;curved=1;rounded=0;orthogonalLoop=1;jettySize=auto;html=1;endArrow=open;startSize=14;endSize=14;sourcePerimeterSpacing=8;targetPerimeterSpacing=8;" edge="1" parent="1" source="bWsPGVuLKNREaqhDsOea-7" target="bWsPGVuLKNREaqhDsOea-8">
          <mxGeometry relative="1" as="geometry" />
        </mxCell>
        <mxCell id="bWsPGVuLKNREaqhDsOea-7" value="start" style="strokeWidth=2;html=1;shape=mxgraph.flowchart.start_1;whiteSpace=wrap;hachureGap=4;pointerEvents=0;" vertex="1" parent="1">
          <mxGeometry x="350" y="230" width="100" height="60" as="geometry" />
        </mxCell>
        <mxCell id="bWsPGVuLKNREaqhDsOea-11" value="" style="edgeStyle=none;curved=1;rounded=0;orthogonalLoop=1;jettySize=auto;html=1;endArrow=open;startSize=14;endSize=14;sourcePerimeterSpacing=8;targetPerimeterSpacing=8;" edge="1" parent="1" source="bWsPGVuLKNREaqhDsOea-8" target="bWsPGVuLKNREaqhDsOea-9">
          <mxGeometry relative="1" as="geometry" />
        </mxCell>
        <mxCell id="bWsPGVuLKNREaqhDsOea-8" value="input A" style="shape=parallelogram;perimeter=parallelogramPerimeter;whiteSpace=wrap;html=1;fixedSize=1;hachureGap=4;pointerEvents=0;" vertex="1" parent="1">
          <mxGeometry x="340" y="360" width="120" height="60" as="geometry" />
        </mxCell>
        <mxCell id="bWsPGVuLKNREaqhDsOea-9" value="input B" style="shape=parallelogram;perimeter=parallelogramPerimeter;whiteSpace=wrap;html=1;fixedSize=1;hachureGap=4;pointerEvents=0;" vertex="1" parent="1">
          <mxGeometry x="340" y="480" width="120" height="60" as="geometry" />
        </mxCell>
        <mxCell id="bWsPGVuLKNREaqhDsOea-16" value="" style="edgeStyle=none;curved=1;rounded=0;orthogonalLoop=1;jettySize=auto;html=1;endArrow=none;startSize=14;endSize=14;sourcePerimeterSpacing=8;" edge="1" parent="1" source="bWsPGVuLKNREaqhDsOea-9">
          <mxGeometry relative="1" as="geometry">
            <mxPoint x="400" y="548" as="sourcePoint" />
            <mxPoint x="400" y="590" as="targetPoint" />
          </mxGeometry>
        </mxCell>
        <mxCell id="bWsPGVuLKNREaqhDsOea-19" style="edgeStyle=none;curved=1;rounded=0;orthogonalLoop=1;jettySize=auto;html=1;exitX=0;exitY=0.5;exitDx=0;exitDy=0;endArrow=open;startSize=14;endSize=14;sourcePerimeterSpacing=8;targetPerimeterSpacing=8;entryX=0;entryY=0.5;entryDx=0;entryDy=0;" edge="1" parent="1">
          <mxGeometry relative="1" as="geometry">
            <mxPoint x="325" y="650" as="targetPoint" />
            <mxPoint x="325" y="650" as="sourcePoint" />
          </mxGeometry>
        </mxCell>
        <mxCell id="bWsPGVuLKNREaqhDsOea-23" value="" style="edgeStyle=none;curved=1;rounded=0;orthogonalLoop=1;jettySize=auto;html=1;endArrow=open;startSize=14;endSize=14;sourcePerimeterSpacing=8;targetPerimeterSpacing=8;" edge="1" parent="1" source="bWsPGVuLKNREaqhDsOea-20" target="bWsPGVuLKNREaqhDsOea-21">
          <mxGeometry relative="1" as="geometry" />
        </mxCell>
        <mxCell id="bWsPGVuLKNREaqhDsOea-25" value="" style="edgeStyle=none;curved=1;rounded=0;orthogonalLoop=1;jettySize=auto;html=1;endArrow=open;startSize=14;endSize=14;sourcePerimeterSpacing=8;targetPerimeterSpacing=8;" edge="1" parent="1" source="bWsPGVuLKNREaqhDsOea-20" target="bWsPGVuLKNREaqhDsOea-24">
          <mxGeometry relative="1" as="geometry" />
        </mxCell>
        <mxCell id="bWsPGVuLKNREaqhDsOea-20" value="if A&amp;gt;B" style="rhombus;whiteSpace=wrap;html=1;hachureGap=4;pointerEvents=0;" vertex="1" parent="1">
          <mxGeometry x="340" y="590" width="120" height="90" as="geometry" />
        </mxCell>
        <mxCell id="bWsPGVuLKNREaqhDsOea-28" style="edgeStyle=none;curved=1;rounded=0;orthogonalLoop=1;jettySize=auto;html=1;endArrow=open;startSize=14;endSize=14;sourcePerimeterSpacing=8;targetPerimeterSpacing=8;" edge="1" parent="1" source="bWsPGVuLKNREaqhDsOea-21">
          <mxGeometry relative="1" as="geometry">
            <mxPoint x="400" y="902" as="targetPoint" />
          </mxGeometry>
        </mxCell>
        <mxCell id="bWsPGVuLKNREaqhDsOea-21" value="C=A-B" style="rounded=0;whiteSpace=wrap;html=1;hachureGap=4;pointerEvents=0;" vertex="1" parent="1">
          <mxGeometry x="340" y="760" width="120" height="60" as="geometry" />
        </mxCell>
        <mxCell id="bWsPGVuLKNREaqhDsOea-29" style="edgeStyle=none;curved=1;rounded=0;orthogonalLoop=1;jettySize=auto;html=1;endArrow=open;startSize=14;endSize=14;sourcePerimeterSpacing=8;targetPerimeterSpacing=8;entryX=1;entryY=0.5;entryDx=0;entryDy=0;" edge="1" parent="1" source="bWsPGVuLKNREaqhDsOea-24">
          <mxGeometry relative="1" as="geometry">
            <mxPoint x="450" y="940" as="targetPoint" />
            <Array as="points">
              <mxPoint x="598" y="850" />
              <mxPoint x="610" y="910" />
            </Array>
          </mxGeometry>
        </mxCell>
        <mxCell id="bWsPGVuLKNREaqhDsOea-24" value="C=A+B" style="whiteSpace=wrap;html=1;hachureGap=4;" vertex="1" parent="1">
          <mxGeometry x="540" y="605" width="120" height="60" as="geometry" />
        </mxCell>
        <mxCell id="bWsPGVuLKNREaqhDsOea-26" value="Stop" style="strokeWidth=2;html=1;shape=mxgraph.flowchart.start_1;whiteSpace=wrap;hachureGap=4;pointerEvents=0;" vertex="1" parent="1">
          <mxGeometry x="350" y="1030" width="100" height="60" as="geometry" />
        </mxCell>
        <mxCell id="bWsPGVuLKNREaqhDsOea-31" value="" style="edgeStyle=none;curved=1;rounded=0;orthogonalLoop=1;jettySize=auto;html=1;endArrow=open;startSize=14;endSize=14;sourcePerimeterSpacing=8;targetPerimeterSpacing=8;" edge="1" parent="1" source="bWsPGVuLKNREaqhDsOea-30" target="bWsPGVuLKNREaqhDsOea-26">
          <mxGeometry relative="1" as="geometry" />
        </mxCell>
        <mxCell id="bWsPGVuLKNREaqhDsOea-30" value="output C" style="shape=parallelogram;perimeter=parallelogramPerimeter;whiteSpace=wrap;html=1;fixedSize=1;hachureGap=4;pointerEvents=0;" vertex="1" parent="1">
          <mxGeometry x="340" y="900" width="120" height="60" as="geometry" />
        </mxCell>
      </root>
    </mxGraphModel>
  </diagram>
</mxfile>
